<mxfile host="app.diagrams.net" agent="Mozilla/5.0 (X11; Linux x86_64; rv:132.0) Gecko/20100101 Firefox/132.0" version="24.8.4">
  <diagram name="Page-1" id="CqAHBHpkuUQwZRKy7ZhC">
    <mxGraphModel dx="1396" dy="1647" grid="1" gridSize="10" guides="1" tooltips="1" connect="1" arrows="1" fold="1" page="1" pageScale="1" pageWidth="850" pageHeight="1100" math="0" shadow="0">
      <root>
        <mxCell id="0" />
        <mxCell id="1" parent="0" />
        <mxCell id="mwmdIXDRcret2Ev2eGPA-3" style="edgeStyle=orthogonalEdgeStyle;rounded=0;orthogonalLoop=1;jettySize=auto;html=1;entryX=0.5;entryY=0;entryDx=0;entryDy=0;" edge="1" parent="1" source="mwmdIXDRcret2Ev2eGPA-1" target="mwmdIXDRcret2Ev2eGPA-2">
          <mxGeometry relative="1" as="geometry" />
        </mxCell>
        <mxCell id="mwmdIXDRcret2Ev2eGPA-1" value="start" style="ellipse;whiteSpace=wrap;html=1;" vertex="1" parent="1">
          <mxGeometry x="360" y="40" width="120" height="80" as="geometry" />
        </mxCell>
        <mxCell id="mwmdIXDRcret2Ev2eGPA-5" style="edgeStyle=orthogonalEdgeStyle;rounded=0;orthogonalLoop=1;jettySize=auto;html=1;entryX=0.5;entryY=0;entryDx=0;entryDy=0;" edge="1" parent="1" source="mwmdIXDRcret2Ev2eGPA-2" target="mwmdIXDRcret2Ev2eGPA-4">
          <mxGeometry relative="1" as="geometry" />
        </mxCell>
        <mxCell id="mwmdIXDRcret2Ev2eGPA-2" value="vector&amp;lt;int&amp;gt; a " style="rounded=1;whiteSpace=wrap;html=1;" vertex="1" parent="1">
          <mxGeometry x="360" y="170" width="120" height="60" as="geometry" />
        </mxCell>
        <mxCell id="mwmdIXDRcret2Ev2eGPA-7" style="edgeStyle=orthogonalEdgeStyle;rounded=0;orthogonalLoop=1;jettySize=auto;html=1;entryX=0.5;entryY=0;entryDx=0;entryDy=0;" edge="1" parent="1" source="mwmdIXDRcret2Ev2eGPA-4" target="mwmdIXDRcret2Ev2eGPA-6">
          <mxGeometry relative="1" as="geometry" />
        </mxCell>
        <mxCell id="mwmdIXDRcret2Ev2eGPA-4" value="string s" style="rounded=1;whiteSpace=wrap;html=1;" vertex="1" parent="1">
          <mxGeometry x="360" y="280" width="120" height="60" as="geometry" />
        </mxCell>
        <mxCell id="mwmdIXDRcret2Ev2eGPA-9" style="edgeStyle=orthogonalEdgeStyle;rounded=0;orthogonalLoop=1;jettySize=auto;html=1;entryX=0.5;entryY=0;entryDx=0;entryDy=0;" edge="1" parent="1" source="mwmdIXDRcret2Ev2eGPA-6" target="mwmdIXDRcret2Ev2eGPA-8">
          <mxGeometry relative="1" as="geometry" />
        </mxCell>
        <mxCell id="mwmdIXDRcret2Ev2eGPA-6" value="vector&amp;lt;string&amp;gt; b" style="rounded=1;whiteSpace=wrap;html=1;" vertex="1" parent="1">
          <mxGeometry x="360" y="390" width="120" height="60" as="geometry" />
        </mxCell>
        <mxCell id="mwmdIXDRcret2Ev2eGPA-22" style="edgeStyle=orthogonalEdgeStyle;rounded=0;orthogonalLoop=1;jettySize=auto;html=1;entryX=0.5;entryY=0;entryDx=0;entryDy=0;" edge="1" parent="1" source="mwmdIXDRcret2Ev2eGPA-8" target="mwmdIXDRcret2Ev2eGPA-21">
          <mxGeometry relative="1" as="geometry" />
        </mxCell>
        <mxCell id="mwmdIXDRcret2Ev2eGPA-8" value="splitString(s,b)" style="shape=process;whiteSpace=wrap;html=1;backgroundOutline=1;" vertex="1" parent="1">
          <mxGeometry x="360" y="500" width="120" height="60" as="geometry" />
        </mxCell>
        <mxCell id="mwmdIXDRcret2Ev2eGPA-13" style="edgeStyle=orthogonalEdgeStyle;rounded=0;orthogonalLoop=1;jettySize=auto;html=1;entryX=0.5;entryY=0;entryDx=0;entryDy=0;" edge="1" parent="1" source="mwmdIXDRcret2Ev2eGPA-11" target="mwmdIXDRcret2Ev2eGPA-12">
          <mxGeometry relative="1" as="geometry" />
        </mxCell>
        <mxCell id="mwmdIXDRcret2Ev2eGPA-11" value="splitString(s,b)" style="ellipse;whiteSpace=wrap;html=1;" vertex="1" parent="1">
          <mxGeometry x="650" y="300" width="120" height="80" as="geometry" />
        </mxCell>
        <mxCell id="mwmdIXDRcret2Ev2eGPA-15" style="edgeStyle=orthogonalEdgeStyle;rounded=0;orthogonalLoop=1;jettySize=auto;html=1;entryX=0.5;entryY=0;entryDx=0;entryDy=0;" edge="1" parent="1" source="mwmdIXDRcret2Ev2eGPA-12" target="mwmdIXDRcret2Ev2eGPA-14">
          <mxGeometry relative="1" as="geometry" />
        </mxCell>
        <mxCell id="mwmdIXDRcret2Ev2eGPA-12" value="stringstream ss" style="rounded=1;whiteSpace=wrap;html=1;" vertex="1" parent="1">
          <mxGeometry x="650" y="430" width="120" height="60" as="geometry" />
        </mxCell>
        <mxCell id="mwmdIXDRcret2Ev2eGPA-17" style="edgeStyle=orthogonalEdgeStyle;rounded=0;orthogonalLoop=1;jettySize=auto;html=1;entryX=0.5;entryY=0;entryDx=0;entryDy=0;" edge="1" parent="1" source="mwmdIXDRcret2Ev2eGPA-14" target="mwmdIXDRcret2Ev2eGPA-16">
          <mxGeometry relative="1" as="geometry" />
        </mxCell>
        <mxCell id="mwmdIXDRcret2Ev2eGPA-14" value="string word" style="rounded=1;whiteSpace=wrap;html=1;" vertex="1" parent="1">
          <mxGeometry x="650" y="540" width="120" height="60" as="geometry" />
        </mxCell>
        <mxCell id="mwmdIXDRcret2Ev2eGPA-19" style="edgeStyle=orthogonalEdgeStyle;rounded=0;orthogonalLoop=1;jettySize=auto;html=1;entryX=0.5;entryY=0;entryDx=0;entryDy=0;" edge="1" parent="1" source="mwmdIXDRcret2Ev2eGPA-16" target="mwmdIXDRcret2Ev2eGPA-18">
          <mxGeometry relative="1" as="geometry" />
        </mxCell>
        <mxCell id="mwmdIXDRcret2Ev2eGPA-24" style="edgeStyle=orthogonalEdgeStyle;rounded=0;orthogonalLoop=1;jettySize=auto;html=1;exitX=1;exitY=0.5;exitDx=0;exitDy=0;entryX=1;entryY=0.5;entryDx=0;entryDy=0;" edge="1" parent="1" source="mwmdIXDRcret2Ev2eGPA-16" target="mwmdIXDRcret2Ev2eGPA-23">
          <mxGeometry relative="1" as="geometry">
            <Array as="points">
              <mxPoint x="840" y="690" />
              <mxPoint x="840" y="930" />
            </Array>
          </mxGeometry>
        </mxCell>
        <mxCell id="mwmdIXDRcret2Ev2eGPA-16" value="ss &amp;gt;&amp;gt; word" style="rhombus;whiteSpace=wrap;html=1;" vertex="1" parent="1">
          <mxGeometry x="645" y="650" width="130" height="80" as="geometry" />
        </mxCell>
        <mxCell id="mwmdIXDRcret2Ev2eGPA-20" style="edgeStyle=orthogonalEdgeStyle;rounded=0;orthogonalLoop=1;jettySize=auto;html=1;entryX=0;entryY=0.5;entryDx=0;entryDy=0;" edge="1" parent="1" source="mwmdIXDRcret2Ev2eGPA-18" target="mwmdIXDRcret2Ev2eGPA-16">
          <mxGeometry relative="1" as="geometry">
            <Array as="points">
              <mxPoint x="570" y="810" />
              <mxPoint x="570" y="690" />
            </Array>
          </mxGeometry>
        </mxCell>
        <mxCell id="mwmdIXDRcret2Ev2eGPA-18" value="push word in vector b" style="rounded=1;whiteSpace=wrap;html=1;" vertex="1" parent="1">
          <mxGeometry x="635" y="780" width="150" height="60" as="geometry" />
        </mxCell>
        <mxCell id="mwmdIXDRcret2Ev2eGPA-58" style="edgeStyle=orthogonalEdgeStyle;rounded=0;orthogonalLoop=1;jettySize=auto;html=1;entryX=0.5;entryY=0;entryDx=0;entryDy=0;" edge="1" parent="1" source="mwmdIXDRcret2Ev2eGPA-21" target="mwmdIXDRcret2Ev2eGPA-57">
          <mxGeometry relative="1" as="geometry" />
        </mxCell>
        <mxCell id="mwmdIXDRcret2Ev2eGPA-21" value="foo(a)" style="shape=process;whiteSpace=wrap;html=1;backgroundOutline=1;" vertex="1" parent="1">
          <mxGeometry x="360" y="610" width="120" height="60" as="geometry" />
        </mxCell>
        <mxCell id="mwmdIXDRcret2Ev2eGPA-23" value="end" style="ellipse;whiteSpace=wrap;html=1;" vertex="1" parent="1">
          <mxGeometry x="650" y="890" width="120" height="80" as="geometry" />
        </mxCell>
        <mxCell id="mwmdIXDRcret2Ev2eGPA-27" style="edgeStyle=orthogonalEdgeStyle;rounded=0;orthogonalLoop=1;jettySize=auto;html=1;entryX=0.5;entryY=0;entryDx=0;entryDy=0;" edge="1" parent="1" source="mwmdIXDRcret2Ev2eGPA-25" target="mwmdIXDRcret2Ev2eGPA-26">
          <mxGeometry relative="1" as="geometry" />
        </mxCell>
        <mxCell id="mwmdIXDRcret2Ev2eGPA-25" value="foo(vector&amp;lt;int&amp;gt; a)" style="ellipse;whiteSpace=wrap;html=1;" vertex="1" parent="1">
          <mxGeometry x="960" y="300" width="150" height="80" as="geometry" />
        </mxCell>
        <mxCell id="mwmdIXDRcret2Ev2eGPA-33" style="edgeStyle=orthogonalEdgeStyle;rounded=0;orthogonalLoop=1;jettySize=auto;html=1;entryX=0.5;entryY=0;entryDx=0;entryDy=0;" edge="1" parent="1" source="mwmdIXDRcret2Ev2eGPA-26" target="mwmdIXDRcret2Ev2eGPA-28">
          <mxGeometry relative="1" as="geometry" />
        </mxCell>
        <mxCell id="mwmdIXDRcret2Ev2eGPA-41" style="edgeStyle=orthogonalEdgeStyle;rounded=0;orthogonalLoop=1;jettySize=auto;html=1;exitX=0;exitY=0.5;exitDx=0;exitDy=0;entryX=0;entryY=0.5;entryDx=0;entryDy=0;" edge="1" parent="1" source="mwmdIXDRcret2Ev2eGPA-26" target="mwmdIXDRcret2Ev2eGPA-40">
          <mxGeometry relative="1" as="geometry">
            <Array as="points">
              <mxPoint x="900" y="460" />
              <mxPoint x="900" y="920" />
            </Array>
          </mxGeometry>
        </mxCell>
        <mxCell id="mwmdIXDRcret2Ev2eGPA-26" value="i = 0; i &amp;lt; a.size(); i++" style="shape=hexagon;perimeter=hexagonPerimeter2;whiteSpace=wrap;html=1;fixedSize=1;" vertex="1" parent="1">
          <mxGeometry x="957.5" y="420" width="155" height="80" as="geometry" />
        </mxCell>
        <mxCell id="mwmdIXDRcret2Ev2eGPA-32" style="edgeStyle=orthogonalEdgeStyle;rounded=0;orthogonalLoop=1;jettySize=auto;html=1;entryX=0.5;entryY=0;entryDx=0;entryDy=0;" edge="1" parent="1" source="mwmdIXDRcret2Ev2eGPA-28" target="mwmdIXDRcret2Ev2eGPA-31">
          <mxGeometry relative="1" as="geometry" />
        </mxCell>
        <mxCell id="mwmdIXDRcret2Ev2eGPA-36" value="true" style="edgeLabel;html=1;align=center;verticalAlign=middle;resizable=0;points=[];" vertex="1" connectable="0" parent="mwmdIXDRcret2Ev2eGPA-32">
          <mxGeometry x="0.16" y="-3" relative="1" as="geometry">
            <mxPoint as="offset" />
          </mxGeometry>
        </mxCell>
        <mxCell id="mwmdIXDRcret2Ev2eGPA-38" style="edgeStyle=orthogonalEdgeStyle;rounded=0;orthogonalLoop=1;jettySize=auto;html=1;entryX=1;entryY=0.5;entryDx=0;entryDy=0;" edge="1" parent="1" source="mwmdIXDRcret2Ev2eGPA-28" target="mwmdIXDRcret2Ev2eGPA-26">
          <mxGeometry relative="1" as="geometry">
            <Array as="points">
              <mxPoint x="1170" y="570" />
              <mxPoint x="1170" y="460" />
            </Array>
          </mxGeometry>
        </mxCell>
        <mxCell id="mwmdIXDRcret2Ev2eGPA-39" value="false" style="edgeLabel;html=1;align=center;verticalAlign=middle;resizable=0;points=[];" vertex="1" connectable="0" parent="mwmdIXDRcret2Ev2eGPA-38">
          <mxGeometry x="-0.7319" y="2" relative="1" as="geometry">
            <mxPoint as="offset" />
          </mxGeometry>
        </mxCell>
        <mxCell id="mwmdIXDRcret2Ev2eGPA-28" value="if a[i] even" style="rhombus;whiteSpace=wrap;html=1;" vertex="1" parent="1">
          <mxGeometry x="967.5" y="530" width="135" height="80" as="geometry" />
        </mxCell>
        <mxCell id="mwmdIXDRcret2Ev2eGPA-35" style="edgeStyle=orthogonalEdgeStyle;rounded=0;orthogonalLoop=1;jettySize=auto;html=1;entryX=0.5;entryY=0;entryDx=0;entryDy=0;" edge="1" parent="1" source="mwmdIXDRcret2Ev2eGPA-31" target="mwmdIXDRcret2Ev2eGPA-34">
          <mxGeometry relative="1" as="geometry" />
        </mxCell>
        <mxCell id="mwmdIXDRcret2Ev2eGPA-31" value="delete element at index i" style="rounded=0;whiteSpace=wrap;html=1;" vertex="1" parent="1">
          <mxGeometry x="975" y="660" width="120" height="60" as="geometry" />
        </mxCell>
        <mxCell id="mwmdIXDRcret2Ev2eGPA-37" style="edgeStyle=orthogonalEdgeStyle;rounded=0;orthogonalLoop=1;jettySize=auto;html=1;entryX=1;entryY=0.5;entryDx=0;entryDy=0;" edge="1" parent="1">
          <mxGeometry relative="1" as="geometry">
            <mxPoint x="1095" y="800" as="sourcePoint" />
            <mxPoint x="1112.5" y="460" as="targetPoint" />
            <Array as="points">
              <mxPoint x="1230" y="800" />
              <mxPoint x="1230" y="460" />
            </Array>
          </mxGeometry>
        </mxCell>
        <mxCell id="mwmdIXDRcret2Ev2eGPA-34" value="i--" style="rounded=1;whiteSpace=wrap;html=1;" vertex="1" parent="1">
          <mxGeometry x="975" y="770" width="120" height="60" as="geometry" />
        </mxCell>
        <mxCell id="mwmdIXDRcret2Ev2eGPA-40" value="end" style="ellipse;whiteSpace=wrap;html=1;" vertex="1" parent="1">
          <mxGeometry x="975" y="880" width="120" height="80" as="geometry" />
        </mxCell>
        <mxCell id="mwmdIXDRcret2Ev2eGPA-42" style="edgeStyle=orthogonalEdgeStyle;rounded=0;orthogonalLoop=1;jettySize=auto;html=1;entryX=0.5;entryY=0;entryDx=0;entryDy=0;" edge="1" source="mwmdIXDRcret2Ev2eGPA-43" target="mwmdIXDRcret2Ev2eGPA-46" parent="1">
          <mxGeometry relative="1" as="geometry" />
        </mxCell>
        <mxCell id="mwmdIXDRcret2Ev2eGPA-43" value="foo(vector&amp;lt;string&amp;gt; b)" style="ellipse;whiteSpace=wrap;html=1;" vertex="1" parent="1">
          <mxGeometry x="1330" y="300" width="150" height="80" as="geometry" />
        </mxCell>
        <mxCell id="mwmdIXDRcret2Ev2eGPA-44" style="edgeStyle=orthogonalEdgeStyle;rounded=0;orthogonalLoop=1;jettySize=auto;html=1;entryX=0.5;entryY=0;entryDx=0;entryDy=0;" edge="1" source="mwmdIXDRcret2Ev2eGPA-46" target="mwmdIXDRcret2Ev2eGPA-51" parent="1">
          <mxGeometry relative="1" as="geometry" />
        </mxCell>
        <mxCell id="mwmdIXDRcret2Ev2eGPA-45" style="edgeStyle=orthogonalEdgeStyle;rounded=0;orthogonalLoop=1;jettySize=auto;html=1;exitX=0;exitY=0.5;exitDx=0;exitDy=0;entryX=0;entryY=0.5;entryDx=0;entryDy=0;" edge="1" source="mwmdIXDRcret2Ev2eGPA-46" target="mwmdIXDRcret2Ev2eGPA-56" parent="1">
          <mxGeometry relative="1" as="geometry">
            <Array as="points">
              <mxPoint x="1270" y="460" />
              <mxPoint x="1270" y="920" />
            </Array>
          </mxGeometry>
        </mxCell>
        <mxCell id="mwmdIXDRcret2Ev2eGPA-46" value="i = 0; i &amp;lt; b.size(); i++" style="shape=hexagon;perimeter=hexagonPerimeter2;whiteSpace=wrap;html=1;fixedSize=1;" vertex="1" parent="1">
          <mxGeometry x="1327.5" y="420" width="155" height="80" as="geometry" />
        </mxCell>
        <mxCell id="mwmdIXDRcret2Ev2eGPA-47" style="edgeStyle=orthogonalEdgeStyle;rounded=0;orthogonalLoop=1;jettySize=auto;html=1;entryX=0.5;entryY=0;entryDx=0;entryDy=0;" edge="1" source="mwmdIXDRcret2Ev2eGPA-51" target="mwmdIXDRcret2Ev2eGPA-53" parent="1">
          <mxGeometry relative="1" as="geometry" />
        </mxCell>
        <mxCell id="mwmdIXDRcret2Ev2eGPA-48" value="true" style="edgeLabel;html=1;align=center;verticalAlign=middle;resizable=0;points=[];" vertex="1" connectable="0" parent="mwmdIXDRcret2Ev2eGPA-47">
          <mxGeometry x="0.16" y="-3" relative="1" as="geometry">
            <mxPoint as="offset" />
          </mxGeometry>
        </mxCell>
        <mxCell id="mwmdIXDRcret2Ev2eGPA-49" style="edgeStyle=orthogonalEdgeStyle;rounded=0;orthogonalLoop=1;jettySize=auto;html=1;entryX=1;entryY=0.5;entryDx=0;entryDy=0;" edge="1" source="mwmdIXDRcret2Ev2eGPA-51" target="mwmdIXDRcret2Ev2eGPA-46" parent="1">
          <mxGeometry relative="1" as="geometry">
            <Array as="points">
              <mxPoint x="1540" y="570" />
              <mxPoint x="1540" y="460" />
            </Array>
          </mxGeometry>
        </mxCell>
        <mxCell id="mwmdIXDRcret2Ev2eGPA-50" value="false" style="edgeLabel;html=1;align=center;verticalAlign=middle;resizable=0;points=[];" vertex="1" connectable="0" parent="mwmdIXDRcret2Ev2eGPA-49">
          <mxGeometry x="-0.7319" y="2" relative="1" as="geometry">
            <mxPoint as="offset" />
          </mxGeometry>
        </mxCell>
        <mxCell id="mwmdIXDRcret2Ev2eGPA-51" value="if length of b[i] even" style="rhombus;whiteSpace=wrap;html=1;" vertex="1" parent="1">
          <mxGeometry x="1337.5" y="530" width="135" height="80" as="geometry" />
        </mxCell>
        <mxCell id="mwmdIXDRcret2Ev2eGPA-52" style="edgeStyle=orthogonalEdgeStyle;rounded=0;orthogonalLoop=1;jettySize=auto;html=1;entryX=0.5;entryY=0;entryDx=0;entryDy=0;" edge="1" source="mwmdIXDRcret2Ev2eGPA-53" target="mwmdIXDRcret2Ev2eGPA-55" parent="1">
          <mxGeometry relative="1" as="geometry" />
        </mxCell>
        <mxCell id="mwmdIXDRcret2Ev2eGPA-53" value="delete element at index i" style="rounded=0;whiteSpace=wrap;html=1;" vertex="1" parent="1">
          <mxGeometry x="1345" y="660" width="120" height="60" as="geometry" />
        </mxCell>
        <mxCell id="mwmdIXDRcret2Ev2eGPA-54" style="edgeStyle=orthogonalEdgeStyle;rounded=0;orthogonalLoop=1;jettySize=auto;html=1;entryX=1;entryY=0.5;entryDx=0;entryDy=0;" edge="1" parent="1">
          <mxGeometry relative="1" as="geometry">
            <mxPoint x="1465" y="800" as="sourcePoint" />
            <mxPoint x="1482.5" y="460" as="targetPoint" />
            <Array as="points">
              <mxPoint x="1600" y="800" />
              <mxPoint x="1600" y="460" />
            </Array>
          </mxGeometry>
        </mxCell>
        <mxCell id="mwmdIXDRcret2Ev2eGPA-55" value="i--" style="rounded=1;whiteSpace=wrap;html=1;" vertex="1" parent="1">
          <mxGeometry x="1345" y="770" width="120" height="60" as="geometry" />
        </mxCell>
        <mxCell id="mwmdIXDRcret2Ev2eGPA-56" value="end" style="ellipse;whiteSpace=wrap;html=1;" vertex="1" parent="1">
          <mxGeometry x="1345" y="880" width="120" height="80" as="geometry" />
        </mxCell>
        <mxCell id="mwmdIXDRcret2Ev2eGPA-61" style="edgeStyle=orthogonalEdgeStyle;rounded=0;orthogonalLoop=1;jettySize=auto;html=1;entryX=0.5;entryY=0;entryDx=0;entryDy=0;" edge="1" parent="1" source="mwmdIXDRcret2Ev2eGPA-57" target="mwmdIXDRcret2Ev2eGPA-59">
          <mxGeometry relative="1" as="geometry" />
        </mxCell>
        <mxCell id="mwmdIXDRcret2Ev2eGPA-57" value="foo(b)" style="shape=process;whiteSpace=wrap;html=1;backgroundOutline=1;" vertex="1" parent="1">
          <mxGeometry x="360" y="720" width="120" height="60" as="geometry" />
        </mxCell>
        <mxCell id="mwmdIXDRcret2Ev2eGPA-62" style="edgeStyle=orthogonalEdgeStyle;rounded=0;orthogonalLoop=1;jettySize=auto;html=1;exitX=0.5;exitY=1;exitDx=0;exitDy=0;entryX=0.5;entryY=0;entryDx=0;entryDy=0;" edge="1" parent="1" source="mwmdIXDRcret2Ev2eGPA-59" target="mwmdIXDRcret2Ev2eGPA-60">
          <mxGeometry relative="1" as="geometry" />
        </mxCell>
        <mxCell id="mwmdIXDRcret2Ev2eGPA-59" value="print a" style="shape=parallelogram;perimeter=parallelogramPerimeter;whiteSpace=wrap;html=1;fixedSize=1;" vertex="1" parent="1">
          <mxGeometry x="360" y="830" width="120" height="60" as="geometry" />
        </mxCell>
        <mxCell id="mwmdIXDRcret2Ev2eGPA-65" style="edgeStyle=orthogonalEdgeStyle;rounded=0;orthogonalLoop=1;jettySize=auto;html=1;entryX=0.5;entryY=0;entryDx=0;entryDy=0;" edge="1" parent="1" source="mwmdIXDRcret2Ev2eGPA-60" target="mwmdIXDRcret2Ev2eGPA-64">
          <mxGeometry relative="1" as="geometry" />
        </mxCell>
        <mxCell id="mwmdIXDRcret2Ev2eGPA-60" value="print b" style="shape=parallelogram;perimeter=parallelogramPerimeter;whiteSpace=wrap;html=1;fixedSize=1;" vertex="1" parent="1">
          <mxGeometry x="360" y="940" width="120" height="60" as="geometry" />
        </mxCell>
        <mxCell id="mwmdIXDRcret2Ev2eGPA-64" value="end" style="ellipse;whiteSpace=wrap;html=1;" vertex="1" parent="1">
          <mxGeometry x="360" y="1050" width="120" height="80" as="geometry" />
        </mxCell>
      </root>
    </mxGraphModel>
  </diagram>
</mxfile>
